HIERARCHY
ROOT joint_Root
{
	OFFSET 0.0 0.0 0.0
	CHANNELS 6 Xposition Yposition Zposition Zrotation Xrotation Yrotation 
	JOINT Hips
	{
		OFFSET 4.5925 91.4895 -427.239
		CHANNELS 6 Xposition Yposition Zposition Zrotation Xrotation Yrotation 
		JOINT Spine
		{
			OFFSET 15.7357 0.0 0.0
			CHANNELS 6 Xposition Yposition Zposition Zrotation Xrotation Yrotation 
			JOINT Chest
			{
				OFFSET 8.98455 -0.406207 0.0
				CHANNELS 6 Xposition Yposition Zposition Zrotation Xrotation Yrotation 
				JOINT Neck
				{
					OFFSET 16.3773 0.0 0.0
					CHANNELS 6 Xposition Yposition Zposition Zrotation Xrotation Yrotation 
					JOINT Head
					{
						OFFSET 6.45672 0.0 0.0
						CHANNELS 6 Xposition Yposition Zposition Zrotation Xrotation Yrotation 
						End Site
						{
							OFFSET 0.0 0.0 0.0
						}
					}
				}
				JOINT Shoulder_L
				{
					OFFSET 12.9942 -0.242716 4.98039
					CHANNELS 6 Xposition Yposition Zposition Zrotation Xrotation Yrotation 
					JOINT UpperArm_L
					{
						OFFSET 5.34809 0.0 0.0
						CHANNELS 6 Xposition Yposition Zposition Zrotation Xrotation Yrotation 
						JOINT LowerArm_L
						{
							OFFSET 24.3286 1.87007e-05 0.0
							CHANNELS 6 Xposition Yposition Zposition Zrotation Xrotation Yrotation 
							JOINT Hand_L
							{
								OFFSET 22.2916 0.0 0.0
								CHANNELS 6 Xposition Yposition Zposition Zrotation Xrotation Yrotation 
								End Site
								{
									OFFSET 0.0 0.0 0.0
								}
							}
						}
					}
				}
				JOINT Shoulder_R
				{
					OFFSET 12.9945 -0.242716 -4.98039
					CHANNELS 6 Xposition Yposition Zposition Zrotation Xrotation Yrotation 
					JOINT UpperArm_R
					{
						OFFSET -5.34813 0.0 0.0
						CHANNELS 6 Xposition Yposition Zposition Zrotation Xrotation Yrotation 
						JOINT LowerArm_R
						{
							OFFSET -24.3289 0.000322201 0.0
							CHANNELS 6 Xposition Yposition Zposition Zrotation Xrotation Yrotation 
							JOINT Hand_R
							{
								OFFSET -22.2915 -0.000108084 0.0
								CHANNELS 6 Xposition Yposition Zposition Zrotation Xrotation Yrotation 
								End Site
								{
									OFFSET 0.0 0.0 0.0
								}
							}
						}
					}
				}
			}
		}
		JOINT UpperLeg_L
		{
			OFFSET -2.19248 -6.46944 0.0
			CHANNELS 6 Xposition Yposition Zposition Zrotation Xrotation Yrotation 
			JOINT LowerLeg_L
			{
				OFFSET 39.0811 0.0 -1.23785e-05
				CHANNELS 6 Xposition Yposition Zposition Zrotation Xrotation Yrotation 
				JOINT Foot_L
				{
					OFFSET 40.9854 0.0 -1.26872e-05
					CHANNELS 6 Xposition Yposition Zposition Zrotation Xrotation Yrotation 
					JOINT Toes_L
					{
						OFFSET 11.7543 0.0 0.0
						CHANNELS 6 Xposition Yposition Zposition Zrotation Xrotation Yrotation 
						End Site
						{
							OFFSET 0.0 0.0 0.0
						}
					}
				}
			}
		}
		JOINT UpperLeg_R
		{
			OFFSET -2.19251 6.46944 0.0
			CHANNELS 6 Xposition Yposition Zposition Zrotation Xrotation Yrotation 
			JOINT LowerLeg_R
			{
				OFFSET -39.0811 -0.00228153 -0.0401928
				CHANNELS 6 Xposition Yposition Zposition Zrotation Xrotation Yrotation 
				JOINT Foot_R
				{
					OFFSET -40.9854 0.0 0.0
					CHANNELS 6 Xposition Yposition Zposition Zrotation Xrotation Yrotation 
					JOINT Toes_R
					{
						OFFSET -11.7543 0.0 0.0
						CHANNELS 6 Xposition Yposition Zposition Zrotation Xrotation Yrotation 
						End Site
						{
							OFFSET 0.0 0.0 0.0
						}
					}
				}
			}
		}
	}
}
MOTION
Frames:	4
Frame Time:	0.0333333
0.000000 0.000000 0.000000 0.000000 0.000000 -0.000000 -9.547460 89.183500 0.077623 86.624100 -3.074700 12.439700 15.735700 0.000005 -0.000001 77.467000 81.356200 -73.042200 8.984550 -0.406207 -0.000000 9.281850 -3.671970 9.143380 16.377300 -0.000001 -0.000001 26.743100 -8.255870 4.170240 6.456720 -0.000001 -0.000000 15.578700 -9.332570 12.978500 12.994200 -0.242716 4.980390 -86.765300 -7.438720 -66.417100 5.348090 -0.000007 -0.000001 -52.064700 -56.105700 -76.676800 24.328600 0.000019 0.000005 15.827300 16.397800 -45.119900 22.291600 -0.000001 0.000005 26.529800 5.230170 1.951920 12.994500 -0.242716 -4.980390 88.214400 9.030230 -78.765800 -5.348130 -0.000001 -0.000004 -59.242400 28.257400 -11.171500 -24.328900 0.000322 -0.000009 1.716470 5.544570 -17.241500 -22.291500 -0.000108 -0.000004 13.987600 5.372950 -2.078150 -2.192480 -6.469440 -0.000000 -165.195000 -8.966500 -0.063328 39.081100 -0.000007 -0.000012 -0.366304 0.496452 36.422400 40.985400 -0.000006 -0.000013 -6.244200 5.625660 -72.400700 11.754300 -0.000000 0.000003 -0.000044 -0.000503 -16.597100 -2.192510 6.469440 -0.000001 -176.617000 19.603900 -177.729000 -39.081100 -0.002282 -0.040193 -0.180186 0.272930 33.911400 -40.985400 0.000008 0.000006 9.860770 9.389150 -75.085300 -11.754300 -0.000006 -0.000006 -0.001572 -0.023228 -17.517600
0.000000 0.000000 0.000000 0.000000 0.000000 -0.000000 -9.626750 89.169100 0.102735 86.549100 -3.102750 12.549000 15.735700 0.000005 -0.000001 77.569000 81.303900 -73.124600 8.984550 -0.406207 -0.000000 9.391050 -3.659580 9.185070 16.377300 -0.000001 -0.000001 26.607100 -8.376810 4.324070 6.456720 -0.000001 -0.000000 15.510300 -9.529210 13.154700 12.994200 -0.242716 4.980390 -86.827100 -7.334400 -66.527500 5.348090 -0.000007 -0.000001 -51.612700 -56.960200 -74.855100 24.328600 0.000019 0.000005 14.775100 17.776700 -40.822300 22.291600 -0.000001 0.000005 25.876800 5.209740 2.474050 12.994500 -0.242716 -4.980390 88.188800 9.068270 -78.655000 -5.348130 -0.000001 -0.000004 -59.031500 28.095200 -11.248500 -24.328900 0.000322 -0.000009 1.771560 5.790320 -17.053500 -22.291500 -0.000108 -0.000004 13.910300 5.373000 -2.079760 -2.192480 -6.469440 -0.000000 -165.060000 -8.852340 0.054988 39.081100 -0.000007 -0.000012 -0.369476 0.500193 36.452900 40.985400 -0.000006 -0.000013 -6.338950 5.541260 -72.435800 11.754300 -0.000000 0.000003 -0.000046 -0.000531 -16.598200 -2.192510 6.469440 -0.000001 -176.577000 19.722100 -177.550000 -39.081100 -0.002282 -0.040193 -0.180938 0.274398 33.877700 -40.985400 0.000008 0.000006 9.952770 9.502800 -75.128900 -11.754300 -0.000006 -0.000006 -0.001492 -0.022170 -17.474600
0.000000 0.000000 0.000000 0.000000 0.000000 -0.000000 -9.704440 89.152500 0.110655 86.457500 -3.058480 12.662300 15.735700 0.000005 -0.000001 77.598900 81.244300 -73.120300 8.984550 -0.406207 -0.000000 9.511480 -3.670530 9.258510 16.377300 -0.000001 -0.000001 26.520400 -8.495690 4.504610 6.456720 -0.000001 -0.000000 15.371600 -9.713980 13.217900 12.994200 -0.242716 4.980390 -86.882900 -7.201980 -66.520400 5.348090 -0.000007 -0.000001 -51.502000 -57.531600 -73.690600 24.328600 0.000019 0.000005 12.909300 18.653500 -35.624700 22.291600 -0.000001 0.000005 25.663100 5.194740 2.851050 12.994500 -0.242716 -4.980390 88.161800 9.128410 -78.563500 -5.348130 -0.000001 -0.000004 -58.811800 27.881200 -11.277200 -24.328900 0.000322 -0.000009 1.754290 5.745970 -17.019300 -22.291500 -0.000108 -0.000004 13.885400 5.371770 -2.041420 -2.192480 -6.469440 -0.000000 -164.907000 -8.733720 0.131626 39.081100 -0.000007 -0.000012 -0.371466 0.501812 36.511500 40.985400 -0.000006 -0.000013 -6.394240 5.564560 -72.463200 11.754300 -0.000000 0.000003 -0.000043 -0.000498 -16.596900 -2.192510 6.469440 -0.000001 -176.541000 19.975600 -177.378000 -39.081100 -0.002282 -0.040193 -0.173059 0.262991 33.844600 -40.985400 0.000008 0.000006 10.053600 9.632800 -75.171200 -11.754300 -0.000006 -0.000006 -0.001520 -0.022532 -17.489300
0.000000 0.000000 0.000000 0.000000 0.000000 -0.000000 -9.775350 89.143200 0.118339 86.331300 -2.943940 12.764700 15.735700 0.000005 -0.000001 77.700400 81.211000 -73.161600 8.984550 -0.406207 -0.000000 9.584690 -3.650390 9.379470 16.377300 -0.000001 -0.000001 26.500900 -8.608120 4.586980 6.456720 -0.000001 -0.000000 15.332200 -9.928690 13.400300 12.994200 -0.242716 4.980390 -86.920300 -7.121120 -66.538800 5.348090 -0.000007 -0.000001 -51.772000 -57.770400 -73.105600 24.328600 0.000019 0.000005 10.439600 18.982100 -29.527300 22.291600 -0.000001 0.000005 25.314900 5.165500 3.570240 12.994500 -0.242716 -4.980390 88.132200 9.200880 -78.472800 -5.348130 -0.000001 -0.000004 -58.593100 27.727500 -11.209900 -24.328900 0.000322 -0.000009 1.784060 5.843200 -17.021000 -22.291500 -0.000108 -0.000004 14.045300 5.371460 -2.031680 -2.192480 -6.469440 -0.000000 -164.724000 -8.605070 0.173111 39.081100 -0.000007 -0.000012 -0.374664 0.505175 36.563400 40.985400 -0.000006 -0.000013 -6.435630 5.625810 -72.468200 11.754300 -0.000000 0.000003 -0.000044 -0.000502 -16.597100 -2.192510 6.469440 -0.000001 -176.492000 20.284600 -177.189000 -39.081100 -0.002282 -0.040193 -0.166299 0.253711 33.760900 -40.985400 0.000008 0.000006 10.150400 9.792190 -75.192200 -11.754300 -0.000006 -0.000006 -0.001431 -0.021352 -17.441400
